<mxfile host="app.diagrams.net" agent="Mozilla/5.0 (Macintosh; Intel Mac OS X 10_15_7) AppleWebKit/605.1.15 (KHTML, like Gecko) Version/18.1 Safari/605.1.15" version="26.0.16">
  <diagram name="Strona-1" id="Gymj996oWL-E4kMO8k5C">
    <mxGraphModel dx="838" dy="756" grid="1" gridSize="10" guides="1" tooltips="1" connect="1" arrows="1" fold="1" page="1" pageScale="1" pageWidth="827" pageHeight="1169" math="0" shadow="0">
      <root>
        <mxCell id="0" />
        <mxCell id="1" parent="0" />
        <mxCell id="dBA57uv5i1eGS9D9UouN-4" value="1" style="rounded=0;orthogonalLoop=1;jettySize=auto;html=1;exitX=0;exitY=1;exitDx=0;exitDy=0;entryX=0.5;entryY=0;entryDx=0;entryDy=0;strokeColor=default;" edge="1" parent="1" source="dBA57uv5i1eGS9D9UouN-1" target="dBA57uv5i1eGS9D9UouN-3">
          <mxGeometry relative="1" as="geometry" />
        </mxCell>
        <mxCell id="dBA57uv5i1eGS9D9UouN-6" value="2" style="rounded=0;orthogonalLoop=1;jettySize=auto;html=1;exitX=1;exitY=1;exitDx=0;exitDy=0;entryX=0.5;entryY=0;entryDx=0;entryDy=0;" edge="1" parent="1" source="dBA57uv5i1eGS9D9UouN-1" target="dBA57uv5i1eGS9D9UouN-5">
          <mxGeometry relative="1" as="geometry" />
        </mxCell>
        <mxCell id="dBA57uv5i1eGS9D9UouN-7" value="3" style="edgeStyle=orthogonalEdgeStyle;rounded=0;orthogonalLoop=1;jettySize=auto;html=1;exitX=0;exitY=0.5;exitDx=0;exitDy=0;entryX=0.25;entryY=0;entryDx=0;entryDy=0;curved=1;" edge="1" parent="1" source="dBA57uv5i1eGS9D9UouN-1" target="dBA57uv5i1eGS9D9UouN-3">
          <mxGeometry relative="1" as="geometry" />
        </mxCell>
        <mxCell id="dBA57uv5i1eGS9D9UouN-9" value="4" style="edgeStyle=orthogonalEdgeStyle;rounded=0;orthogonalLoop=1;jettySize=auto;html=1;exitX=1;exitY=0.5;exitDx=0;exitDy=0;entryX=0.75;entryY=0;entryDx=0;entryDy=0;curved=1;" edge="1" parent="1" source="dBA57uv5i1eGS9D9UouN-1" target="dBA57uv5i1eGS9D9UouN-5">
          <mxGeometry relative="1" as="geometry" />
        </mxCell>
        <mxCell id="dBA57uv5i1eGS9D9UouN-1" value="(0,0)&lt;div&gt;&lt;br&gt;&lt;/div&gt;" style="text;html=1;align=center;verticalAlign=top;whiteSpace=wrap;rounded=0;fontSize=30;" vertex="1" parent="1">
          <mxGeometry x="315" y="160" width="100" height="40" as="geometry" />
        </mxCell>
        <mxCell id="dBA57uv5i1eGS9D9UouN-11" value="2" style="rounded=0;orthogonalLoop=1;jettySize=auto;html=1;exitX=0.75;exitY=1;exitDx=0;exitDy=0;entryX=0.25;entryY=0;entryDx=0;entryDy=0;" edge="1" parent="1" source="dBA57uv5i1eGS9D9UouN-3" target="dBA57uv5i1eGS9D9UouN-10">
          <mxGeometry relative="1" as="geometry" />
        </mxCell>
        <mxCell id="dBA57uv5i1eGS9D9UouN-3" value="(4,0)&lt;div&gt;&lt;br&gt;&lt;/div&gt;" style="text;html=1;align=center;verticalAlign=top;whiteSpace=wrap;rounded=0;fontSize=30;spacingBottom=0;" vertex="1" parent="1">
          <mxGeometry x="210" y="240" width="80" height="40" as="geometry" />
        </mxCell>
        <mxCell id="dBA57uv5i1eGS9D9UouN-5" value="(0,3)&lt;div&gt;&lt;div&gt;&lt;br&gt;&lt;/div&gt;&lt;/div&gt;" style="text;html=1;align=center;verticalAlign=top;whiteSpace=wrap;rounded=0;fontSize=30;" vertex="1" parent="1">
          <mxGeometry x="420" y="240" width="80" height="40" as="geometry" />
        </mxCell>
        <mxCell id="dBA57uv5i1eGS9D9UouN-13" value="3" style="rounded=0;orthogonalLoop=1;jettySize=auto;html=1;exitX=0.75;exitY=0;exitDx=0;exitDy=0;entryX=0.25;entryY=1;entryDx=0;entryDy=0;" edge="1" parent="1" source="dBA57uv5i1eGS9D9UouN-10" target="dBA57uv5i1eGS9D9UouN-5">
          <mxGeometry relative="1" as="geometry">
            <mxPoint x="430" y="300" as="targetPoint" />
          </mxGeometry>
        </mxCell>
        <mxCell id="dBA57uv5i1eGS9D9UouN-10" value="(4,3)&lt;div&gt;&lt;div&gt;&lt;div&gt;&lt;br&gt;&lt;/div&gt;&lt;/div&gt;&lt;/div&gt;" style="text;html=1;align=center;verticalAlign=top;whiteSpace=wrap;rounded=0;fontSize=30;" vertex="1" parent="1">
          <mxGeometry x="325" y="330" width="80" height="40" as="geometry" />
        </mxCell>
        <mxCell id="dBA57uv5i1eGS9D9UouN-14" value="(1,3)&lt;div&gt;&lt;div&gt;&lt;div&gt;&lt;br&gt;&lt;/div&gt;&lt;/div&gt;&lt;/div&gt;" style="text;html=1;align=center;verticalAlign=top;whiteSpace=wrap;rounded=0;fontSize=30;" vertex="1" parent="1">
          <mxGeometry x="120" y="330" width="80" height="40" as="geometry" />
        </mxCell>
        <mxCell id="dBA57uv5i1eGS9D9UouN-15" value="(3,0)&lt;div&gt;&lt;div&gt;&lt;div&gt;&lt;br&gt;&lt;/div&gt;&lt;/div&gt;&lt;/div&gt;" style="text;html=1;align=center;verticalAlign=top;whiteSpace=wrap;rounded=0;fontSize=30;" vertex="1" parent="1">
          <mxGeometry x="510" y="330" width="80" height="40" as="geometry" />
        </mxCell>
      </root>
    </mxGraphModel>
  </diagram>
</mxfile>
